<?xml version="1.0" encoding="UTF-8" standalone="no"?>
<svg xmlns="http://www.w3.org/2000/svg" width="984" height="1040" viewBox="0 0 984 1040">
  
  <path d="M 399 121 L 352 137 L 138 272 L 126 322 L 63 452 L 54 593 L 90 737 L 128 805 L 233 911 L 326 958 L 431 989 L 542 993 L 610 983 L 684 957 L 790 886 L 870 789 L 925 649 L 934 576 L 925 471 L 853 304 L 756 209 L 670 153 L 582 124 L 547 136 Z M 469 969 L 470 962 L 476 957 L 508 958 L 514 957 L 521 953 L 526 947 L 526 925 L 530 920 L 536 921 L 546 931 L 549 939 L 554 944 L 569 952 L 575 952 L 589 946 L 605 943 L 618 938 L 623 938 L 625 940 L 620 945 L 618 951 L 611 957 L 590 961 L 572 969 L 565 969 L 536 975 L 506 978 L 479 975 L 473 973 Z M 509 913 L 511 915 L 511 919 L 510 920 L 510 921 L 509 922 L 509 923 L 508 924 L 508 926 L 507 927 L 507 929 L 506 930 L 506 931 L 505 932 L 505 933 L 503 935 L 503 936 L 500 939 L 499 939 L 497 941 L 496 941 L 495 942 L 491 942 L 489 940 L 489 939 L 488 938 L 488 935 L 489 934 L 489 932 L 493 928 L 493 927 L 495 925 L 495 924 L 502 917 L 503 917 L 507 913 Z M 468 901 L 470 903 L 470 904 L 471 905 L 471 906 L 473 908 L 473 909 L 478 914 L 479 914 L 483 918 L 483 923 L 482 924 L 482 926 L 481 927 L 481 928 L 480 929 L 480 931 L 479 932 L 479 936 L 478 937 L 478 939 L 474 943 L 473 943 L 472 944 L 465 944 L 464 943 L 463 943 L 462 942 L 461 942 L 452 933 L 452 930 L 454 928 L 455 928 L 458 925 L 459 925 L 462 922 L 462 921 L 463 920 L 463 918 L 464 917 L 464 907 L 465 906 L 465 905 L 466 904 L 466 903 Z M 320 874 L 330 870 L 350 869 L 365 865 L 377 858 L 386 858 L 405 865 L 407 867 L 407 877 L 413 883 L 429 894 L 442 896 L 450 900 L 456 906 L 457 910 L 453 918 L 444 919 L 442 921 L 441 926 L 446 931 L 439 933 L 422 927 L 412 921 L 391 917 L 378 910 L 363 911 L 349 906 L 338 905 L 320 895 L 316 891 L 320 887 L 329 887 L 354 896 L 362 902 L 372 904 L 375 901 L 374 896 L 370 892 L 372 890 L 390 895 L 397 893 L 397 890 L 381 878 L 345 880 L 325 877 Z M 609 855 L 612 859 L 613 868 L 607 875 L 603 885 L 603 906 L 600 912 L 595 917 L 590 918 L 587 921 L 583 930 L 579 934 L 575 936 L 572 936 L 569 933 L 569 927 L 572 920 L 572 917 L 574 914 L 574 910 L 576 906 L 576 902 L 578 897 L 580 895 L 582 897 L 582 904 L 583 905 L 583 907 L 585 909 L 587 909 L 589 905 L 589 877 L 590 876 L 590 871 L 591 870 L 591 868 L 592 866 L 603 855 Z M 586 815 L 587 815 L 588 814 L 589 814 L 592 812 L 601 812 L 604 815 L 604 817 L 606 820 L 606 823 L 607 824 L 607 825 L 608 826 L 608 827 L 610 829 L 611 829 L 616 834 L 616 835 L 617 836 L 617 846 L 616 847 L 616 848 L 613 851 L 610 851 L 608 849 L 608 848 L 606 846 L 606 845 L 604 843 L 604 842 L 603 842 L 589 828 L 589 827 L 583 821 L 583 818 Z M 637 800 L 638 799 L 638 797 L 639 795 L 643 791 L 645 790 L 647 790 L 648 789 L 651 789 L 652 788 L 656 788 L 657 787 L 670 787 L 671 788 L 674 788 L 675 789 L 692 789 L 693 790 L 697 790 L 699 791 L 702 794 L 704 798 L 704 805 L 705 807 L 704 808 L 704 810 L 701 813 L 699 813 L 693 806 L 689 806 L 688 807 L 686 807 L 680 810 L 678 812 L 677 812 L 673 815 L 671 815 L 667 817 L 661 817 L 659 816 L 656 813 L 655 810 L 652 807 L 644 807 L 643 806 L 641 806 L 637 803 Z M 871 736 L 863 761 L 848 780 L 829 811 L 826 826 L 815 836 L 814 849 L 805 858 L 795 857 L 787 866 L 778 865 L 728 909 L 698 927 L 673 935 L 655 936 L 651 933 L 653 929 L 670 920 L 699 910 L 711 898 L 716 889 L 724 887 L 747 870 L 767 848 L 781 818 L 784 801 L 787 798 L 803 799 L 811 792 L 823 789 L 852 755 L 867 732 Z M 114 718 L 116 716 L 125 727 L 130 742 L 153 779 L 170 796 L 171 802 L 177 798 L 181 800 L 177 813 L 200 838 L 207 840 L 213 832 L 229 845 L 271 839 L 280 841 L 295 863 L 318 872 L 310 880 L 287 884 L 286 890 L 290 895 L 309 905 L 338 912 L 363 935 L 413 952 L 419 959 L 416 962 L 391 962 L 378 968 L 363 961 L 347 960 L 337 953 L 323 951 L 275 921 L 261 919 L 237 902 L 180 851 L 129 790 L 129 776 Z M 513 655 L 531 666 L 527 676 L 526 690 L 520 701 L 530 709 L 534 717 L 542 765 L 538 771 L 532 773 L 532 797 L 527 827 L 514 861 L 511 880 L 503 896 L 491 909 L 488 906 L 485 869 L 472 824 L 475 776 L 478 771 L 490 766 L 494 760 L 496 746 L 500 738 L 503 713 L 500 699 L 491 698 L 481 683 L 469 680 L 464 674 L 464 669 L 475 656 L 486 663 L 496 664 L 505 656 Z M 466 568 L 469 567 L 473 569 L 479 578 L 482 580 L 485 580 L 491 576 L 494 570 L 498 566 L 502 566 L 507 571 L 513 591 L 518 601 L 519 617 L 526 626 L 528 630 L 528 633 L 533 639 L 535 644 L 535 652 L 532 655 L 526 655 L 520 649 L 516 647 L 501 632 L 496 626 L 493 620 L 483 609 L 478 601 L 477 596 L 475 593 L 472 584 L 472 581 L 464 574 L 464 570 Z M 496 589 L 495 590 L 494 590 L 491 593 L 491 596 L 492 597 L 492 598 L 496 602 L 497 602 L 498 603 L 501 603 L 502 602 L 502 600 L 503 599 L 503 594 L 502 593 L 502 591 L 500 589 Z M 513 528 L 520 532 L 521 545 L 529 557 L 534 579 L 544 588 L 543 606 L 552 621 L 554 632 L 557 636 L 559 634 L 561 620 L 566 611 L 565 594 L 571 564 L 576 556 L 580 558 L 580 581 L 576 595 L 574 645 L 576 653 L 574 665 L 569 676 L 557 686 L 552 686 L 548 682 L 544 659 L 543 638 L 536 619 L 529 608 L 527 591 L 521 577 L 518 557 L 510 546 L 509 531 Z M 477 523 L 479 525 L 479 530 L 478 531 L 478 534 L 477 535 L 477 536 L 476 537 L 476 538 L 474 540 L 474 541 L 473 542 L 473 543 L 472 544 L 472 545 L 468 549 L 467 549 L 466 550 L 465 550 L 462 553 L 460 553 L 458 551 L 458 550 L 457 549 L 458 548 L 458 546 L 459 545 L 459 544 L 461 542 L 461 541 L 462 540 L 462 536 L 463 535 L 463 530 L 464 529 L 464 527 L 465 526 L 465 525 L 467 523 L 468 523 L 469 522 L 473 522 L 474 523 Z M 539 517 L 541 517 L 542 518 L 543 518 L 549 524 L 549 531 L 550 532 L 550 533 L 552 535 L 552 536 L 553 537 L 553 538 L 554 539 L 554 540 L 556 542 L 556 543 L 557 544 L 557 546 L 558 547 L 558 548 L 557 549 L 557 550 L 554 553 L 548 553 L 544 549 L 544 548 L 543 547 L 543 546 L 541 544 L 541 543 L 540 542 L 540 541 L 537 538 L 537 537 L 536 536 L 536 534 L 535 533 L 535 531 L 534 530 L 534 529 L 533 528 L 533 527 L 532 526 L 532 523 L 533 522 L 533 521 L 535 519 L 536 519 L 537 518 L 538 518 Z M 393 504 L 396 504 L 405 513 L 412 515 L 415 517 L 421 517 L 423 516 L 425 512 L 424 511 L 427 507 L 430 510 L 430 514 L 438 526 L 440 545 L 443 550 L 454 563 L 455 566 L 454 569 L 454 581 L 455 582 L 455 585 L 454 588 L 450 591 L 447 590 L 440 584 L 440 582 L 437 576 L 431 569 L 430 566 L 416 554 L 412 542 L 409 538 L 405 536 L 403 536 L 400 538 L 395 538 L 393 536 L 389 523 L 389 509 Z M 356 503 L 359 503 L 361 504 L 373 515 L 374 519 L 375 520 L 376 532 L 378 535 L 379 539 L 382 542 L 385 548 L 387 550 L 388 550 L 395 557 L 399 559 L 401 561 L 403 565 L 404 565 L 408 569 L 408 572 L 405 575 L 403 575 L 397 568 L 395 568 L 391 566 L 385 560 L 384 560 L 381 557 L 380 557 L 374 551 L 371 550 L 362 541 L 361 537 L 360 536 L 360 534 L 358 531 L 357 526 L 354 521 L 354 517 L 353 516 L 353 506 Z M 585 501 L 586 502 L 588 502 L 591 505 L 591 508 L 592 509 L 592 510 L 591 511 L 591 514 L 586 519 L 586 520 L 585 521 L 585 522 L 584 523 L 584 526 L 583 527 L 583 532 L 582 533 L 582 537 L 581 538 L 581 540 L 579 542 L 577 542 L 575 540 L 574 540 L 570 536 L 570 535 L 569 534 L 569 533 L 568 532 L 568 531 L 567 530 L 567 525 L 566 524 L 566 517 L 569 514 L 570 514 L 572 512 L 573 512 L 574 511 L 575 511 L 579 507 L 579 506 L 580 505 L 580 504 L 582 502 L 583 502 L 584 501 Z M 573 459 L 575 459 L 576 458 L 579 458 L 580 457 L 587 457 L 591 461 L 591 484 L 586 489 L 585 489 L 581 485 L 581 484 L 579 482 L 573 482 L 572 481 L 571 481 L 568 478 L 568 476 L 567 475 L 567 468 L 568 467 L 568 465 L 569 464 L 569 463 Z M 418 410 L 421 410 L 423 412 L 424 420 L 423 433 L 426 439 L 439 441 L 448 445 L 475 451 L 481 454 L 488 463 L 502 475 L 503 478 L 502 493 L 507 500 L 507 504 L 503 513 L 499 518 L 490 522 L 486 518 L 487 513 L 486 506 L 482 506 L 475 511 L 472 510 L 466 504 L 451 503 L 437 494 L 431 488 L 429 483 L 423 477 L 422 474 L 401 451 L 402 444 L 406 441 L 412 440 L 415 435 L 415 426 L 411 421 L 411 418 Z M 441 480 L 441 484 L 443 486 L 444 485 L 445 485 L 445 484 L 446 483 L 445 482 L 445 481 L 444 480 Z M 433 457 L 430 460 L 430 461 L 429 462 L 429 463 L 427 465 L 427 466 L 426 467 L 426 469 L 427 470 L 429 470 L 432 473 L 432 474 L 435 477 L 439 477 L 439 474 L 438 473 L 438 470 L 437 469 L 437 468 L 438 467 L 438 464 L 439 463 L 439 459 L 437 457 Z M 632 359 L 638 364 L 639 370 L 634 374 L 630 386 L 624 393 L 624 397 L 628 400 L 648 398 L 649 397 L 653 397 L 659 394 L 661 397 L 657 404 L 647 414 L 640 424 L 626 437 L 622 439 L 612 441 L 607 435 L 596 425 L 594 420 L 589 414 L 588 411 L 605 393 L 608 386 L 608 381 L 610 375 L 616 365 L 622 360 L 625 359 Z M 490 359 L 494 362 L 494 365 L 493 367 L 490 370 L 488 374 L 488 378 L 487 379 L 487 381 L 488 382 L 488 387 L 489 388 L 489 394 L 488 395 L 488 398 L 487 399 L 487 401 L 481 407 L 480 410 L 475 415 L 473 416 L 469 416 L 468 417 L 463 417 L 460 414 L 460 412 L 463 409 L 466 409 L 470 407 L 472 404 L 472 401 L 470 397 L 468 395 L 469 393 L 469 391 L 470 390 L 470 387 L 464 379 L 464 362 L 465 361 L 465 359 L 467 357 L 468 357 L 471 360 L 475 362 L 481 359 L 483 359 L 484 358 L 487 358 L 488 359 Z M 452 319 L 460 319 L 461 320 L 464 320 L 465 321 L 476 321 L 477 322 L 478 322 L 479 323 L 480 323 L 482 325 L 482 326 L 483 327 L 483 336 L 482 337 L 482 338 L 481 339 L 481 340 L 480 341 L 480 342 L 477 345 L 477 346 L 474 349 L 473 349 L 469 353 L 469 354 L 467 356 L 465 356 L 464 355 L 463 355 L 456 348 L 455 348 L 453 346 L 452 346 L 447 341 L 447 340 L 446 339 L 446 326 L 447 325 L 447 323 L 450 320 L 451 320 Z M 411 299 L 416 294 L 417 291 L 419 289 L 421 289 L 425 287 L 428 287 L 429 286 L 432 286 L 433 285 L 436 285 L 437 284 L 443 284 L 444 283 L 446 283 L 450 281 L 454 281 L 455 280 L 472 280 L 473 281 L 483 281 L 488 283 L 493 287 L 500 289 L 502 291 L 502 299 L 501 300 L 500 306 L 497 312 L 493 316 L 491 316 L 486 311 L 484 307 L 480 305 L 475 305 L 474 304 L 438 305 L 430 309 L 423 309 L 417 303 L 414 302 Z M 290 232 L 296 241 L 273 265 L 240 327 L 240 356 L 264 418 L 295 451 L 351 539 L 441 620 L 446 641 L 434 664 L 454 652 L 432 690 L 433 719 L 454 779 L 450 826 L 432 824 L 438 766 L 423 746 L 415 712 L 431 666 L 409 691 L 427 763 L 427 849 L 421 856 L 374 847 L 328 860 L 308 857 L 282 831 L 228 830 L 198 804 L 153 738 L 124 666 L 113 675 L 118 642 L 108 543 L 123 461 L 159 369 L 213 297 Z M 317 227 L 330 230 L 328 240 L 297 289 L 288 324 L 279 333 L 279 339 L 307 370 L 317 371 L 317 350 L 322 337 L 317 301 L 335 261 L 336 239 L 346 229 L 350 231 L 337 279 L 334 333 L 329 342 L 328 361 L 334 369 L 356 374 L 375 393 L 382 410 L 380 422 L 371 415 L 363 419 L 370 437 L 366 448 L 368 460 L 356 479 L 336 451 L 325 420 L 284 372 L 284 357 L 268 350 L 252 359 L 248 354 L 253 338 L 267 342 L 273 331 L 278 305 L 274 302 L 266 307 L 265 296 L 304 237 Z M 662 225 L 676 250 L 687 236 L 729 259 L 838 382 L 865 445 L 881 594 L 863 680 L 830 754 L 773 803 L 742 863 L 662 912 L 621 918 L 619 872 L 731 814 L 751 786 L 721 806 L 727 772 L 635 720 L 637 697 L 618 711 L 611 754 L 603 696 L 589 729 L 569 739 L 548 920 L 551 716 L 569 689 L 637 686 L 759 747 L 738 720 L 582 662 L 608 465 L 712 364 L 681 257 L 702 363 L 678 385 L 642 372 L 672 322 Z M 689 224 L 692 221 L 699 220 L 707 224 L 713 231 L 722 233 L 726 238 L 745 239 L 747 237 L 745 233 L 733 230 L 720 223 L 713 212 L 715 210 L 721 213 L 731 210 L 740 211 L 768 234 L 813 280 L 828 289 L 837 298 L 854 321 L 855 329 L 851 332 L 846 323 L 831 311 L 824 313 L 824 319 L 831 329 L 829 335 L 820 326 L 804 321 L 785 300 L 782 293 L 752 264 L 727 247 L 723 241 L 713 239 L 706 233 L 691 231 Z M 321 177 L 309 192 L 287 202 L 283 211 L 276 210 L 277 219 L 239 242 L 222 267 L 209 277 L 212 293 L 193 307 L 172 338 L 161 333 L 156 344 L 160 357 L 149 369 L 138 371 L 141 388 L 129 409 L 119 443 L 112 450 L 113 469 L 107 489 L 100 492 L 95 511 L 103 524 L 101 534 L 91 546 L 90 554 L 81 558 L 77 544 L 87 470 L 83 465 L 75 478 L 72 475 L 74 452 L 104 377 L 136 324 L 146 277 L 158 266 L 184 262 L 282 193 Z M 392 175 L 500 163 L 602 177 L 581 184 L 529 175 L 445 181 L 564 181 L 628 239 L 636 223 L 648 242 L 655 276 L 632 264 L 624 293 L 653 289 L 652 328 L 636 307 L 624 340 L 619 311 L 610 341 L 583 358 L 559 359 L 573 371 L 573 405 L 547 505 L 530 502 L 495 455 L 500 442 L 540 430 L 558 408 L 546 384 L 522 398 L 516 419 L 507 416 L 510 397 L 496 403 L 500 342 L 511 313 L 511 289 L 501 276 L 436 273 L 401 298 L 396 405 L 342 346 L 351 251 L 361 232 L 441 186 L 391 183 Z M 555 360 L 554 359 L 552 359 L 551 358 L 547 358 L 546 359 L 543 359 L 542 360 L 541 360 L 537 364 L 536 364 L 533 367 L 532 367 L 528 371 L 528 372 L 521 379 L 521 380 L 520 381 L 520 384 L 518 386 L 516 386 L 515 387 L 515 388 L 514 389 L 514 390 L 515 391 L 517 391 L 519 388 L 519 386 L 521 384 L 528 384 L 529 383 L 531 383 L 534 380 L 534 379 L 537 376 L 538 376 L 541 373 L 542 373 L 544 371 L 545 371 L 547 369 L 548 369 L 549 368 L 550 368 L 551 367 L 552 367 L 554 365 L 554 364 L 555 363 Z M 636 150 L 642 150 L 643 151 L 651 151 L 652 152 L 654 152 L 659 157 L 660 157 L 663 159 L 666 159 L 667 160 L 668 160 L 670 162 L 670 163 L 671 164 L 671 167 L 672 168 L 672 171 L 669 174 L 667 174 L 666 175 L 663 175 L 662 176 L 662 178 L 661 179 L 661 180 L 658 183 L 657 183 L 654 185 L 652 185 L 650 187 L 649 190 L 646 193 L 642 193 L 638 189 L 638 188 L 641 185 L 642 185 L 643 184 L 646 184 L 647 183 L 647 182 L 648 181 L 648 180 L 647 179 L 647 176 L 646 175 L 646 174 L 640 168 L 634 166 L 631 163 L 631 158 L 633 155 L 633 153 Z M 408 156 L 408 152 L 414 144 L 422 141 L 426 137 L 429 136 L 435 137 L 442 143 L 456 143 L 473 138 L 494 138 L 523 143 L 547 144 L 554 146 L 556 148 L 551 156 L 544 161 L 527 161 L 526 162 L 512 161 L 507 163 L 495 163 L 483 159 L 446 160 L 440 158 L 428 149 L 423 151 L 412 160 Z M 566 148 L 568 146 L 569 146 L 574 141 L 574 139 L 576 137 L 576 136 L 579 133 L 585 133 L 586 134 L 588 134 L 589 135 L 593 135 L 594 136 L 595 136 L 596 137 L 597 137 L 601 141 L 601 147 L 604 150 L 605 150 L 606 151 L 607 151 L 611 155 L 611 156 L 610 157 L 610 158 L 609 159 L 609 160 L 606 163 L 605 163 L 603 165 L 601 165 L 600 166 L 593 166 L 592 167 L 588 167 L 587 166 L 586 166 L 585 165 L 584 165 L 581 162 L 580 162 L 575 158 L 574 158 L 566 150 Z M 406 131 L 406 136 L 405 138 L 400 143 L 398 143 L 394 145 L 393 147 L 393 152 L 394 153 L 394 155 L 392 157 L 389 157 L 388 158 L 374 158 L 366 162 L 361 162 L 358 159 L 355 158 L 353 161 L 353 163 L 351 167 L 344 173 L 337 176 L 334 176 L 333 177 L 327 177 L 325 175 L 325 172 L 330 167 L 331 167 L 343 155 L 348 152 L 352 151 L 354 147 L 356 145 L 359 145 L 360 144 L 369 144 L 370 143 L 381 143 L 382 142 L 386 141 L 398 129 L 404 129 Z" fill="#ffffff" fill-rule="evenodd"/>
</svg>
